<svg width="787" height="767" viewBox="0 0 787 767" fill="none" xmlns="http://www.w3.org/2000/svg">
<path d="M301.101 49.3079C310.666 49.3079 318.42 41.4085 318.42 31.6641C318.42 21.9197 310.666 14.0203 301.101 14.0203C291.535 14.0203 283.781 21.9197 283.781 31.6641C283.781 41.4085 291.535 49.3079 301.101 49.3079Z" fill="white"/>
<path d="M17.3194 640.681C26.8846 640.681 34.6388 632.782 34.6388 623.038C34.6388 613.293 26.8846 605.394 17.3194 605.394C7.75416 605.394 0 613.293 0 623.038C0 632.782 7.75416 640.681 17.3194 640.681Z" fill="white"/>
<path d="M555.468 618.778C565.033 618.778 572.787 610.878 572.787 601.134C572.787 591.39 565.033 583.49 555.468 583.49C545.903 583.49 538.148 591.39 538.148 601.134C538.148 610.878 545.903 618.778 555.468 618.778Z" fill="white"/>
<path d="M757.919 189.484C767.484 189.484 775.238 181.585 775.238 171.841C775.238 162.096 767.484 154.197 757.919 154.197C748.354 154.197 740.6 162.096 740.6 171.841C740.6 181.585 748.354 189.484 757.919 189.484Z" fill="white"/>
<path d="M19.0488 601.134C19.0488 601.134 19.0488 342.683 23.3748 333.921C27.7007 325.16 51.0607 299.972 51.0607 299.972L301.965 36.0449C301.965 36.0449 437.8 166.365 449.912 166.365C462.025 166.365 551 179 551 179M767.435 188.269C767.435 188.269 789.93 253.977 784.739 276.974C779.549 299.972 564.982 584.708 564.982 584.708M542.487 603.325L222 619.5" stroke="white" stroke-opacity="0.79" stroke-width="2"/>
<path d="M191.808 605H63.4999C51.6258 605 42 614.806 42 626.903C42 638.999 51.6258 648.805 63.4999 648.805H191.808C203.682 648.805 213.308 638.999 213.308 626.903C213.308 614.806 203.682 605 191.808 605Z" stroke="white" stroke-width="2"/>
<path d="M87.7521 630V621.41H88.8888V624.938H93.3536V621.41H94.4903V630H93.3536V625.951H88.8888V630H87.7521ZM95.8614 626.889C95.8614 625.736 96.1818 624.883 96.8224 624.328C97.3575 623.867 98.0099 623.637 98.7794 623.637C99.6349 623.637 100.334 623.918 100.877 624.48C101.42 625.039 101.692 625.812 101.692 626.801C101.692 627.602 101.57 628.232 101.328 628.693C101.09 629.15 100.74 629.506 100.279 629.76C99.8224 630.014 99.3224 630.141 98.7794 630.141C97.9083 630.141 97.2032 629.861 96.6642 629.303C96.129 628.744 95.8614 627.939 95.8614 626.889ZM96.9454 626.889C96.9454 627.686 97.1193 628.283 97.4669 628.682C97.8146 629.076 98.2521 629.273 98.7794 629.273C99.3028 629.273 99.7384 629.074 100.086 628.676C100.434 628.277 100.608 627.67 100.608 626.854C100.608 626.084 100.432 625.502 100.08 625.107C99.7325 624.709 99.2989 624.51 98.7794 624.51C98.2521 624.51 97.8146 624.707 97.4669 625.102C97.1193 625.496 96.9454 626.092 96.9454 626.889ZM102.934 630V623.777H103.877V624.65C104.072 624.346 104.332 624.102 104.656 623.918C104.981 623.73 105.35 623.637 105.764 623.637C106.225 623.637 106.602 623.732 106.895 623.924C107.192 624.115 107.401 624.383 107.522 624.727C108.014 624 108.654 623.637 109.443 623.637C110.061 623.637 110.535 623.809 110.867 624.152C111.199 624.492 111.365 625.018 111.365 625.729V630H110.317V626.08C110.317 625.658 110.281 625.355 110.211 625.172C110.145 624.984 110.022 624.834 109.842 624.721C109.662 624.607 109.451 624.551 109.209 624.551C108.772 624.551 108.408 624.697 108.119 624.99C107.83 625.279 107.686 625.744 107.686 626.385V630H106.631V625.957C106.631 625.488 106.545 625.137 106.373 624.902C106.201 624.668 105.92 624.551 105.529 624.551C105.233 624.551 104.957 624.629 104.703 624.785C104.453 624.941 104.272 625.17 104.158 625.471C104.045 625.771 103.988 626.205 103.988 626.771V630H102.934ZM117.19 627.996L118.279 628.131C118.108 628.768 117.789 629.262 117.324 629.613C116.859 629.965 116.266 630.141 115.543 630.141C114.633 630.141 113.91 629.861 113.375 629.303C112.844 628.74 112.578 627.953 112.578 626.941C112.578 625.895 112.848 625.082 113.387 624.504C113.926 623.926 114.625 623.637 115.484 623.637C116.317 623.637 116.996 623.92 117.524 624.486C118.051 625.053 118.315 625.85 118.315 626.877C118.315 626.939 118.313 627.033 118.309 627.158H113.668C113.707 627.842 113.901 628.365 114.248 628.729C114.596 629.092 115.029 629.273 115.549 629.273C115.936 629.273 116.266 629.172 116.539 628.969C116.813 628.766 117.029 628.441 117.19 627.996ZM113.727 626.291H117.201C117.154 625.768 117.022 625.375 116.803 625.113C116.467 624.707 116.031 624.504 115.496 624.504C115.012 624.504 114.604 624.666 114.272 624.99C113.943 625.314 113.762 625.748 113.727 626.291ZM123.049 630V621.41H124.76L126.793 627.492C126.981 628.059 127.117 628.482 127.203 628.764C127.301 628.451 127.453 627.992 127.66 627.387L129.717 621.41H131.246V630H130.151V622.811L127.654 630H126.629L124.145 622.688V630H123.049ZM132.951 622.623V621.41H134.006V622.623H132.951ZM132.951 630V623.777H134.006V630H132.951ZM139.654 630V629.215C139.26 629.832 138.68 630.141 137.914 630.141C137.418 630.141 136.961 630.004 136.543 629.73C136.129 629.457 135.807 629.076 135.576 628.588C135.35 628.096 135.236 627.531 135.236 626.895C135.236 626.273 135.34 625.711 135.547 625.207C135.754 624.699 136.065 624.311 136.479 624.041C136.893 623.771 137.356 623.637 137.867 623.637C138.242 623.637 138.576 623.717 138.869 623.877C139.162 624.033 139.401 624.238 139.584 624.492V621.41H140.633V630H139.654ZM136.32 626.895C136.32 627.691 136.488 628.287 136.824 628.682C137.16 629.076 137.557 629.273 138.014 629.273C138.475 629.273 138.865 629.086 139.186 628.711C139.51 628.332 139.672 627.756 139.672 626.982C139.672 626.131 139.508 625.506 139.18 625.107C138.852 624.709 138.447 624.51 137.967 624.51C137.498 624.51 137.106 624.701 136.789 625.084C136.477 625.467 136.32 626.07 136.32 626.895ZM146.334 630V629.215C145.94 629.832 145.359 630.141 144.594 630.141C144.098 630.141 143.641 630.004 143.223 629.73C142.809 629.457 142.486 629.076 142.256 628.588C142.029 628.096 141.916 627.531 141.916 626.895C141.916 626.273 142.02 625.711 142.227 625.207C142.434 624.699 142.744 624.311 143.158 624.041C143.572 623.771 144.035 623.637 144.547 623.637C144.922 623.637 145.256 623.717 145.549 623.877C145.842 624.033 146.08 624.238 146.264 624.492V621.41H147.313V630H146.334ZM143 626.895C143 627.691 143.168 628.287 143.504 628.682C143.84 629.076 144.236 629.273 144.693 629.273C145.154 629.273 145.545 629.086 145.865 628.711C146.19 628.332 146.352 627.756 146.352 626.982C146.352 626.131 146.188 625.506 145.859 625.107C145.531 624.709 145.127 624.51 144.647 624.51C144.178 624.51 143.785 624.701 143.469 625.084C143.156 625.467 143 626.07 143 626.895ZM148.953 630V621.41H150.008V630H148.953ZM155.908 627.996L156.998 628.131C156.826 628.768 156.508 629.262 156.043 629.613C155.578 629.965 154.984 630.141 154.262 630.141C153.352 630.141 152.629 629.861 152.094 629.303C151.563 628.74 151.297 627.953 151.297 626.941C151.297 625.895 151.567 625.082 152.106 624.504C152.645 623.926 153.344 623.637 154.203 623.637C155.035 623.637 155.715 623.92 156.242 624.486C156.77 625.053 157.033 625.85 157.033 626.877C157.033 626.939 157.031 627.033 157.027 627.158H152.387C152.426 627.842 152.619 628.365 152.967 628.729C153.315 629.092 153.748 629.273 154.268 629.273C154.654 629.273 154.984 629.172 155.258 628.969C155.531 628.766 155.748 628.441 155.908 627.996ZM152.445 626.291H155.92C155.873 625.768 155.74 625.375 155.522 625.113C155.186 624.707 154.75 624.504 154.215 624.504C153.731 624.504 153.322 624.666 152.99 624.99C152.662 625.314 152.481 625.748 152.445 626.291Z" fill="white"/>
<path d="M478.595 1H350.287C338.413 1 328.787 10.8062 328.787 22.9027C328.787 34.9992 338.413 44.8054 350.287 44.8054H478.595C490.469 44.8054 500.095 34.9992 500.095 22.9027C500.095 10.8062 490.469 1 478.595 1Z" stroke="white" stroke-width="2"/>
<path d="M382.492 26.7019V18.1121H383.629V21.6394H388.094V18.1121H389.231V26.7019H388.094V22.6531H383.629V26.7019H382.492ZM390.602 23.5906C390.602 22.4382 390.922 21.5847 391.563 21.03C392.098 20.5691 392.75 20.3386 393.52 20.3386C394.375 20.3386 395.074 20.6199 395.617 21.1824C396.16 21.741 396.432 22.5144 396.432 23.5027C396.432 24.3035 396.311 24.9343 396.068 25.3953C395.83 25.8523 395.481 26.2078 395.02 26.4617C394.563 26.7156 394.063 26.8425 393.52 26.8425C392.649 26.8425 391.943 26.5632 391.404 26.0046C390.869 25.446 390.602 24.6414 390.602 23.5906ZM391.686 23.5906C391.686 24.3875 391.859 24.9851 392.207 25.3835C392.555 25.7781 392.992 25.9753 393.52 25.9753C394.043 25.9753 394.479 25.7761 394.826 25.3777C395.174 24.9792 395.348 24.3718 395.348 23.5554C395.348 22.7859 395.172 22.2039 394.82 21.8093C394.473 21.4109 394.039 21.2117 393.52 21.2117C392.992 21.2117 392.555 21.4089 392.207 21.8035C391.859 22.198 391.686 22.7937 391.686 23.5906ZM397.674 26.7019V20.4792H398.617V21.3523C398.813 21.0476 399.072 20.8035 399.397 20.6199C399.721 20.4324 400.09 20.3386 400.504 20.3386C400.965 20.3386 401.342 20.4343 401.635 20.6257C401.932 20.8171 402.141 21.0847 402.262 21.4285C402.754 20.7019 403.395 20.3386 404.184 20.3386C404.801 20.3386 405.276 20.5105 405.608 20.8542C405.94 21.1941 406.106 21.7195 406.106 22.4304V26.7019H405.057V22.782C405.057 22.3601 405.022 22.0574 404.951 21.8738C404.885 21.6863 404.762 21.5359 404.582 21.4226C404.402 21.3093 404.192 21.2527 403.949 21.2527C403.512 21.2527 403.149 21.3992 402.859 21.6921C402.57 21.9812 402.426 22.446 402.426 23.0867V26.7019H401.371V22.6589C401.371 22.1902 401.285 21.8386 401.113 21.6042C400.942 21.3699 400.66 21.2527 400.27 21.2527C399.973 21.2527 399.697 21.3308 399.443 21.4871C399.193 21.6433 399.012 21.8718 398.899 22.1726C398.785 22.4734 398.729 22.907 398.729 23.4734V26.7019H397.674ZM411.93 24.698L413.02 24.8328C412.848 25.4695 412.529 25.9636 412.065 26.3152C411.6 26.6667 411.006 26.8425 410.283 26.8425C409.373 26.8425 408.651 26.5632 408.115 26.0046C407.584 25.4421 407.318 24.655 407.318 23.6433C407.318 22.5964 407.588 21.7839 408.127 21.2058C408.666 20.6277 409.365 20.3386 410.225 20.3386C411.057 20.3386 411.736 20.6218 412.264 21.1882C412.791 21.7546 413.055 22.5515 413.055 23.5789C413.055 23.6414 413.053 23.7351 413.049 23.8601H408.408C408.447 24.5437 408.641 25.0671 408.988 25.4304C409.336 25.7937 409.77 25.9753 410.289 25.9753C410.676 25.9753 411.006 25.8738 411.279 25.6707C411.553 25.4675 411.77 25.1433 411.93 24.698ZM408.467 22.9929H411.942C411.895 22.4695 411.762 22.0769 411.543 21.8152C411.207 21.4089 410.772 21.2058 410.236 21.2058C409.752 21.2058 409.344 21.3679 409.012 21.6921C408.684 22.0164 408.502 22.45 408.467 22.9929ZM416.213 26.7019L419.512 18.1121H420.736L424.252 26.7019H422.957L421.955 24.1003H418.363L417.42 26.7019H416.213ZM418.692 23.1746H421.604L420.707 20.7957C420.434 20.073 420.231 19.4792 420.098 19.0144C419.988 19.5652 419.834 20.1121 419.635 20.655L418.692 23.1746ZM425.002 26.7019V18.1121H426.057V26.7019H425.002ZM427.305 23.5906C427.305 22.4382 427.625 21.5847 428.266 21.03C428.801 20.5691 429.453 20.3386 430.223 20.3386C431.078 20.3386 431.777 20.6199 432.32 21.1824C432.863 21.741 433.135 22.5144 433.135 23.5027C433.135 24.3035 433.014 24.9343 432.772 25.3953C432.533 25.8523 432.184 26.2078 431.723 26.4617C431.266 26.7156 430.766 26.8425 430.223 26.8425C429.352 26.8425 428.647 26.5632 428.108 26.0046C427.572 25.446 427.305 24.6414 427.305 23.5906ZM428.389 23.5906C428.389 24.3875 428.563 24.9851 428.91 25.3835C429.258 25.7781 429.695 25.9753 430.223 25.9753C430.746 25.9753 431.182 25.7761 431.529 25.3777C431.877 24.9792 432.051 24.3718 432.051 23.5554C432.051 22.7859 431.875 22.2039 431.524 21.8093C431.176 21.4109 430.742 21.2117 430.223 21.2117C429.695 21.2117 429.258 21.4089 428.91 21.8035C428.563 22.198 428.389 22.7937 428.389 23.5906ZM434.377 26.7019V20.4792H435.326V21.364C435.783 20.6804 436.443 20.3386 437.307 20.3386C437.682 20.3386 438.026 20.407 438.338 20.5437C438.654 20.6765 438.891 20.8523 439.047 21.071C439.203 21.2898 439.313 21.5496 439.375 21.8503C439.414 22.0457 439.434 22.3875 439.434 22.8757V26.7019H438.379V22.9167C438.379 22.4871 438.338 22.1667 438.256 21.9558C438.174 21.741 438.027 21.571 437.817 21.446C437.609 21.3171 437.365 21.2527 437.084 21.2527C436.635 21.2527 436.246 21.3953 435.918 21.6804C435.594 21.9656 435.432 22.5066 435.432 23.3035V26.7019H434.377ZM445.317 24.698L446.406 24.8328C446.234 25.4695 445.916 25.9636 445.451 26.3152C444.986 26.6667 444.393 26.8425 443.67 26.8425C442.76 26.8425 442.037 26.5632 441.502 26.0046C440.971 25.4421 440.705 24.655 440.705 23.6433C440.705 22.5964 440.975 21.7839 441.514 21.2058C442.053 20.6277 442.752 20.3386 443.611 20.3386C444.443 20.3386 445.123 20.6218 445.651 21.1882C446.178 21.7546 446.442 22.5515 446.442 23.5789C446.442 23.6414 446.44 23.7351 446.436 23.8601H441.795C441.834 24.5437 442.027 25.0671 442.375 25.4304C442.723 25.7937 443.156 25.9753 443.676 25.9753C444.063 25.9753 444.393 25.8738 444.666 25.6707C444.94 25.4675 445.156 25.1433 445.317 24.698ZM441.854 22.9929H445.328C445.281 22.4695 445.149 22.0769 444.93 21.8152C444.594 21.4089 444.158 21.2058 443.623 21.2058C443.139 21.2058 442.731 21.3679 442.399 21.6921C442.07 22.0164 441.889 22.45 441.854 22.9929Z" fill="white"/>
<path d="M736.421 579.231H608.113C596.239 579.231 586.613 589.037 586.613 601.134C586.613 613.23 596.239 623.036 608.113 623.036H736.421C748.295 623.036 757.921 613.23 757.921 601.134C757.921 589.037 748.295 579.231 736.421 579.231Z" stroke="white" stroke-width="2"/>
<path d="M639.416 605V596.41H640.553V599.938H645.018V596.41H646.154V605H645.018V600.951H640.553V605H639.416ZM647.526 601.889C647.526 600.736 647.846 599.883 648.486 599.328C649.022 598.867 649.674 598.637 650.443 598.637C651.299 598.637 651.998 598.918 652.541 599.48C653.084 600.039 653.356 600.812 653.356 601.801C653.356 602.602 653.234 603.232 652.992 603.693C652.754 604.15 652.404 604.506 651.943 604.76C651.486 605.014 650.986 605.141 650.443 605.141C649.572 605.141 648.867 604.861 648.328 604.303C647.793 603.744 647.526 602.939 647.526 601.889ZM648.609 601.889C648.609 602.686 648.783 603.283 649.131 603.682C649.479 604.076 649.916 604.273 650.443 604.273C650.967 604.273 651.402 604.074 651.75 603.676C652.098 603.277 652.272 602.67 652.272 601.854C652.272 601.084 652.096 600.502 651.744 600.107C651.397 599.709 650.963 599.51 650.443 599.51C649.916 599.51 649.479 599.707 649.131 600.102C648.783 600.496 648.609 601.092 648.609 601.889ZM654.598 605V598.777H655.541V599.65C655.736 599.346 655.996 599.102 656.32 598.918C656.645 598.73 657.014 598.637 657.428 598.637C657.889 598.637 658.266 598.732 658.559 598.924C658.856 599.115 659.065 599.383 659.186 599.727C659.678 599 660.318 598.637 661.108 598.637C661.725 598.637 662.199 598.809 662.531 599.152C662.863 599.492 663.029 600.018 663.029 600.729V605H661.981V601.08C661.981 600.658 661.945 600.355 661.875 600.172C661.809 599.984 661.686 599.834 661.506 599.721C661.326 599.607 661.115 599.551 660.873 599.551C660.436 599.551 660.072 599.697 659.783 599.99C659.494 600.279 659.35 600.744 659.35 601.385V605H658.295V600.957C658.295 600.488 658.209 600.137 658.037 599.902C657.865 599.668 657.584 599.551 657.193 599.551C656.897 599.551 656.621 599.629 656.367 599.785C656.117 599.941 655.936 600.17 655.822 600.471C655.709 600.771 655.652 601.205 655.652 601.771V605H654.598ZM668.854 602.996L669.943 603.131C669.772 603.768 669.453 604.262 668.988 604.613C668.524 604.965 667.93 605.141 667.207 605.141C666.297 605.141 665.574 604.861 665.039 604.303C664.508 603.74 664.242 602.953 664.242 601.941C664.242 600.895 664.512 600.082 665.051 599.504C665.59 598.926 666.289 598.637 667.149 598.637C667.981 598.637 668.66 598.92 669.188 599.486C669.715 600.053 669.979 600.85 669.979 601.877C669.979 601.939 669.977 602.033 669.973 602.158H665.332C665.371 602.842 665.565 603.365 665.912 603.729C666.26 604.092 666.693 604.273 667.213 604.273C667.6 604.273 667.93 604.172 668.203 603.969C668.477 603.766 668.693 603.441 668.854 602.996ZM665.391 601.291H668.865C668.818 600.768 668.686 600.375 668.467 600.113C668.131 599.707 667.695 599.504 667.16 599.504C666.676 599.504 666.268 599.666 665.936 599.99C665.608 600.314 665.426 600.748 665.391 601.291ZM674.942 605V596.41H676.078V605H674.942ZM677.953 605V598.777H678.902V599.662C679.359 598.979 680.02 598.637 680.883 598.637C681.258 598.637 681.602 598.705 681.914 598.842C682.231 598.975 682.467 599.15 682.623 599.369C682.779 599.588 682.889 599.848 682.951 600.148C682.99 600.344 683.01 600.686 683.01 601.174V605H681.955V601.215C681.955 600.785 681.914 600.465 681.832 600.254C681.75 600.039 681.604 599.869 681.393 599.744C681.186 599.615 680.942 599.551 680.66 599.551C680.211 599.551 679.822 599.693 679.494 599.979C679.17 600.264 679.008 600.805 679.008 601.602V605H677.953ZM684.211 603.143L685.254 602.979C685.313 603.396 685.475 603.717 685.74 603.939C686.01 604.162 686.385 604.273 686.865 604.273C687.35 604.273 687.709 604.176 687.943 603.98C688.178 603.781 688.295 603.549 688.295 603.283C688.295 603.045 688.192 602.857 687.984 602.721C687.84 602.627 687.481 602.508 686.906 602.363C686.133 602.168 685.596 602 685.295 601.859C684.998 601.715 684.772 601.518 684.615 601.268C684.463 601.014 684.387 600.734 684.387 600.43C684.387 600.152 684.449 599.896 684.574 599.662C684.703 599.424 684.877 599.227 685.096 599.07C685.26 598.949 685.483 598.848 685.764 598.766C686.049 598.68 686.354 598.637 686.678 598.637C687.166 598.637 687.594 598.707 687.961 598.848C688.332 598.988 688.606 599.18 688.781 599.422C688.957 599.66 689.078 599.98 689.145 600.383L688.113 600.523C688.067 600.203 687.93 599.953 687.703 599.773C687.481 599.594 687.164 599.504 686.754 599.504C686.27 599.504 685.924 599.584 685.717 599.744C685.51 599.904 685.406 600.092 685.406 600.307C685.406 600.443 685.449 600.566 685.535 600.676C685.621 600.789 685.756 600.883 685.94 600.957C686.045 600.996 686.356 601.086 686.871 601.227C687.617 601.426 688.137 601.59 688.43 601.719C688.727 601.844 688.959 602.027 689.127 602.27C689.295 602.512 689.379 602.812 689.379 603.172C689.379 603.523 689.276 603.855 689.068 604.168C688.865 604.477 688.57 604.717 688.184 604.889C687.797 605.057 687.359 605.141 686.871 605.141C686.063 605.141 685.445 604.973 685.02 604.637C684.598 604.301 684.328 603.803 684.211 603.143ZM690.639 597.623V596.41H691.693V597.623H690.639ZM690.639 605V598.777H691.693V605H690.639ZM697.342 605V604.215C696.947 604.832 696.367 605.141 695.602 605.141C695.106 605.141 694.649 605.004 694.231 604.73C693.817 604.457 693.494 604.076 693.264 603.588C693.037 603.096 692.924 602.531 692.924 601.895C692.924 601.273 693.027 600.711 693.234 600.207C693.442 599.699 693.752 599.311 694.166 599.041C694.58 598.771 695.043 598.637 695.555 598.637C695.93 598.637 696.264 598.717 696.557 598.877C696.85 599.033 697.088 599.238 697.272 599.492V596.41H698.32V605H697.342ZM694.008 601.895C694.008 602.691 694.176 603.287 694.512 603.682C694.848 604.076 695.244 604.273 695.701 604.273C696.162 604.273 696.553 604.086 696.873 603.711C697.197 603.332 697.359 602.756 697.359 601.982C697.359 601.131 697.195 600.506 696.867 600.107C696.539 599.709 696.135 599.51 695.654 599.51C695.186 599.51 694.793 599.701 694.477 600.084C694.164 600.467 694.008 601.07 694.008 601.895ZM704.244 602.996L705.334 603.131C705.162 603.768 704.844 604.262 704.379 604.613C703.914 604.965 703.32 605.141 702.598 605.141C701.688 605.141 700.965 604.861 700.43 604.303C699.899 603.74 699.633 602.953 699.633 601.941C699.633 600.895 699.902 600.082 700.442 599.504C700.981 598.926 701.68 598.637 702.539 598.637C703.371 598.637 704.051 598.92 704.578 599.486C705.106 600.053 705.369 600.85 705.369 601.877C705.369 601.939 705.367 602.033 705.363 602.158H700.723C700.762 602.842 700.955 603.365 701.303 603.729C701.651 604.092 702.084 604.273 702.604 604.273C702.99 604.273 703.32 604.172 703.594 603.969C703.867 603.766 704.084 603.441 704.244 602.996ZM700.781 601.291H704.256C704.209 600.768 704.076 600.375 703.858 600.113C703.522 599.707 703.086 599.504 702.551 599.504C702.067 599.504 701.658 599.666 701.326 599.99C700.998 600.314 700.817 600.748 700.781 601.291Z" fill="white"/>
<path d="M706.808 153H578.5C566.626 153 557 162.806 557 174.903C557 186.999 566.626 196.805 578.5 196.805H706.808C718.682 196.805 728.308 186.999 728.308 174.903C728.308 162.806 718.682 153 706.808 153Z" stroke="white" stroke-width="2"/>
<path d="M607.582 179V170.41H608.719V173.938H613.184V170.41H614.32V179H613.184V174.951H608.719V179H607.582ZM615.691 175.889C615.691 174.736 616.012 173.883 616.652 173.328C617.188 172.867 617.84 172.637 618.609 172.637C619.465 172.637 620.164 172.918 620.707 173.48C621.25 174.039 621.521 174.812 621.521 175.801C621.521 176.602 621.4 177.232 621.158 177.693C620.92 178.15 620.57 178.506 620.109 178.76C619.652 179.014 619.152 179.141 618.609 179.141C617.738 179.141 617.033 178.861 616.494 178.303C615.959 177.744 615.691 176.939 615.691 175.889ZM616.775 175.889C616.775 176.686 616.949 177.283 617.297 177.682C617.645 178.076 618.082 178.273 618.609 178.273C619.133 178.273 619.568 178.074 619.916 177.676C620.264 177.277 620.438 176.67 620.438 175.854C620.438 175.084 620.262 174.502 619.91 174.107C619.562 173.709 619.129 173.51 618.609 173.51C618.082 173.51 617.645 173.707 617.297 174.102C616.949 174.496 616.775 175.092 616.775 175.889ZM622.764 179V172.777H623.707V173.65C623.902 173.346 624.162 173.102 624.486 172.918C624.811 172.73 625.18 172.637 625.594 172.637C626.055 172.637 626.432 172.732 626.725 172.924C627.021 173.115 627.23 173.383 627.352 173.727C627.844 173 628.484 172.637 629.273 172.637C629.891 172.637 630.365 172.809 630.697 173.152C631.029 173.492 631.195 174.018 631.195 174.729V179H630.146V175.08C630.146 174.658 630.111 174.355 630.041 174.172C629.975 173.984 629.852 173.834 629.672 173.721C629.492 173.607 629.281 173.551 629.039 173.551C628.602 173.551 628.238 173.697 627.949 173.99C627.66 174.279 627.516 174.744 627.516 175.385V179H626.461V174.957C626.461 174.488 626.375 174.137 626.203 173.902C626.031 173.668 625.75 173.551 625.359 173.551C625.062 173.551 624.787 173.629 624.533 173.785C624.283 173.941 624.102 174.17 623.988 174.471C623.875 174.771 623.818 175.205 623.818 175.771V179H622.764ZM637.02 176.996L638.109 177.131C637.938 177.768 637.619 178.262 637.154 178.613C636.689 178.965 636.096 179.141 635.373 179.141C634.463 179.141 633.74 178.861 633.205 178.303C632.674 177.74 632.408 176.953 632.408 175.941C632.408 174.895 632.678 174.082 633.217 173.504C633.756 172.926 634.455 172.637 635.314 172.637C636.146 172.637 636.826 172.92 637.354 173.486C637.881 174.053 638.145 174.85 638.145 175.877C638.145 175.939 638.143 176.033 638.139 176.158H633.498C633.537 176.842 633.73 177.365 634.078 177.729C634.426 178.092 634.859 178.273 635.379 178.273C635.766 178.273 636.096 178.172 636.369 177.969C636.643 177.766 636.859 177.441 637.02 176.996ZM633.557 175.291H637.031C636.984 174.768 636.852 174.375 636.633 174.113C636.297 173.707 635.861 173.504 635.326 173.504C634.842 173.504 634.434 173.666 634.102 173.99C633.773 174.314 633.592 174.748 633.557 175.291ZM642.568 174.816C642.568 173.391 642.951 172.275 643.717 171.471C644.482 170.662 645.471 170.258 646.682 170.258C647.475 170.258 648.189 170.447 648.826 170.826C649.463 171.205 649.947 171.734 650.279 172.414C650.615 173.09 650.783 173.857 650.783 174.717C650.783 175.588 650.607 176.367 650.256 177.055C649.904 177.742 649.406 178.264 648.762 178.619C648.117 178.971 647.422 179.146 646.676 179.146C645.867 179.146 645.145 178.951 644.508 178.561C643.871 178.17 643.389 177.637 643.061 176.961C642.732 176.285 642.568 175.57 642.568 174.816ZM643.74 174.834C643.74 175.869 644.018 176.686 644.572 177.283C645.131 177.877 645.83 178.174 646.67 178.174C647.525 178.174 648.229 177.873 648.779 177.271C649.334 176.67 649.611 175.816 649.611 174.711C649.611 174.012 649.492 173.402 649.254 172.883C649.02 172.359 648.674 171.955 648.217 171.67C647.764 171.381 647.254 171.236 646.688 171.236C645.883 171.236 645.189 171.514 644.607 172.068C644.029 172.619 643.74 173.541 643.74 174.834ZM656.197 179V178.086C655.713 178.789 655.055 179.141 654.223 179.141C653.855 179.141 653.512 179.07 653.191 178.93C652.875 178.789 652.639 178.613 652.482 178.402C652.33 178.188 652.223 177.926 652.16 177.617C652.117 177.41 652.096 177.082 652.096 176.633V172.777H653.15V176.229C653.15 176.779 653.172 177.15 653.215 177.342C653.281 177.619 653.422 177.838 653.637 177.998C653.852 178.154 654.117 178.232 654.434 178.232C654.75 178.232 655.047 178.152 655.324 177.992C655.602 177.828 655.797 177.607 655.91 177.33C656.027 177.049 656.086 176.643 656.086 176.111V172.777H657.141V179H656.197ZM661.102 178.057L661.254 178.988C660.957 179.051 660.691 179.082 660.457 179.082C660.074 179.082 659.777 179.021 659.566 178.9C659.355 178.779 659.207 178.621 659.121 178.426C659.035 178.227 658.992 177.811 658.992 177.178V173.598H658.219V172.777H658.992V171.236L660.041 170.604V172.777H661.102V173.598H660.041V177.236C660.041 177.537 660.059 177.73 660.094 177.816C660.133 177.902 660.193 177.971 660.275 178.021C660.361 178.072 660.482 178.098 660.639 178.098C660.756 178.098 660.91 178.084 661.102 178.057ZM661.717 177.143L662.76 176.979C662.818 177.396 662.98 177.717 663.246 177.939C663.516 178.162 663.891 178.273 664.371 178.273C664.855 178.273 665.215 178.176 665.449 177.98C665.684 177.781 665.801 177.549 665.801 177.283C665.801 177.045 665.697 176.857 665.49 176.721C665.346 176.627 664.986 176.508 664.412 176.363C663.639 176.168 663.102 176 662.801 175.859C662.504 175.715 662.277 175.518 662.121 175.268C661.969 175.014 661.893 174.734 661.893 174.43C661.893 174.152 661.955 173.896 662.08 173.662C662.209 173.424 662.383 173.227 662.602 173.07C662.766 172.949 662.988 172.848 663.27 172.766C663.555 172.68 663.859 172.637 664.184 172.637C664.672 172.637 665.1 172.707 665.467 172.848C665.838 172.988 666.111 173.18 666.287 173.422C666.463 173.66 666.584 173.98 666.65 174.383L665.619 174.523C665.572 174.203 665.436 173.953 665.209 173.773C664.986 173.594 664.67 173.504 664.26 173.504C663.775 173.504 663.43 173.584 663.223 173.744C663.016 173.904 662.912 174.092 662.912 174.307C662.912 174.443 662.955 174.566 663.041 174.676C663.127 174.789 663.262 174.883 663.445 174.957C663.551 174.996 663.861 175.086 664.377 175.227C665.123 175.426 665.643 175.59 665.936 175.719C666.232 175.844 666.465 176.027 666.633 176.27C666.801 176.512 666.885 176.812 666.885 177.172C666.885 177.523 666.781 177.855 666.574 178.168C666.371 178.477 666.076 178.717 665.689 178.889C665.303 179.057 664.865 179.141 664.377 179.141C663.568 179.141 662.951 178.973 662.525 178.637C662.104 178.301 661.834 177.803 661.717 177.143ZM668.145 171.623V170.41H669.199V171.623H668.145ZM668.145 179V172.777H669.199V179H668.145ZM674.848 179V178.215C674.453 178.832 673.873 179.141 673.107 179.141C672.611 179.141 672.154 179.004 671.736 178.73C671.322 178.457 671 178.076 670.77 177.588C670.543 177.096 670.43 176.531 670.43 175.895C670.43 175.273 670.533 174.711 670.74 174.207C670.947 173.699 671.258 173.311 671.672 173.041C672.086 172.771 672.549 172.637 673.061 172.637C673.436 172.637 673.77 172.717 674.062 172.877C674.355 173.033 674.594 173.238 674.777 173.492V170.41H675.826V179H674.848ZM671.514 175.895C671.514 176.691 671.682 177.287 672.018 177.682C672.354 178.076 672.75 178.273 673.207 178.273C673.668 178.273 674.059 178.086 674.379 177.711C674.703 177.332 674.865 176.756 674.865 175.982C674.865 175.131 674.701 174.506 674.373 174.107C674.045 173.709 673.641 173.51 673.16 173.51C672.691 173.51 672.299 173.701 671.982 174.084C671.67 174.467 671.514 175.07 671.514 175.895ZM681.75 176.996L682.84 177.131C682.668 177.768 682.35 178.262 681.885 178.613C681.42 178.965 680.826 179.141 680.104 179.141C679.193 179.141 678.471 178.861 677.936 178.303C677.404 177.74 677.139 176.953 677.139 175.941C677.139 174.895 677.408 174.082 677.947 173.504C678.486 172.926 679.186 172.637 680.045 172.637C680.877 172.637 681.557 172.92 682.084 173.486C682.611 174.053 682.875 174.85 682.875 175.877C682.875 175.939 682.873 176.033 682.869 176.158H678.229C678.268 176.842 678.461 177.365 678.809 177.729C679.156 178.092 679.59 178.273 680.109 178.273C680.496 178.273 680.826 178.172 681.1 177.969C681.373 177.766 681.59 177.441 681.75 176.996ZM678.287 175.291H681.762C681.715 174.768 681.582 174.375 681.363 174.113C681.027 173.707 680.592 173.504 680.057 173.504C679.572 173.504 679.164 173.666 678.832 173.99C678.504 174.314 678.322 174.748 678.287 175.291Z" fill="white"/>
</svg>
